<?xml version="1.0" standalone="no"?>
<!DOCTYPE svg PUBLIC "-//W3C//DTD SVG 20010904//EN"
 "http://www.w3.org/TR/2001/REC-SVG-20010904/DTD/svg10.dtd">
<svg version="1.0" xmlns="http://www.w3.org/2000/svg"
 width="16pt" height="16pt" viewBox="0 0 1024.000000 1536.000000"
 preserveAspectRatio="xMidYMid meet">

<g transform="translate(0.000000,1536.000000) scale(0.100000,-0.100000)"
fill="#000000" stroke="none">
<path d="M0 7680 l0 -7680 5120 0 5120 0 0 7680 0 7680 -5120 0 -5120 0 0
-7680z m7273 4217 l648 -642 -1 -2445 0 -2446 -23 -69 c-45 -138 -135 -241
-265 -303 l-77 -37 -347 -3 -347 -3 34 79 c181 429 189 883 23 1317 -76 199
-189 368 -345 515 -177 167 -390 283 -624 339 -197 48 -281 51 -1281 51 l-938
0 0 -1150 0 -1150 -502 0 c-545 0 -558 1 -658 56 -83 45 -153 121 -202 220
l-43 87 0 2926 0 2926 36 75 c64 135 188 242 324 281 56 16 192 18 2000 18
l1940 1 648 -643z m-1713 -4198 c104 -10 143 -16 195 -30 107 -29 177 -54 250
-90 86 -42 219 -135 211 -147 -2 -4 2 -16 10 -27 8 -10 14 -14 14 -9 0 6 -5
15 -12 22 -9 9 -9 12 0 12 12 0 38 -40 34 -53 -1 -5 2 -6 7 -3 13 9 76 -67
118 -142 127 -227 161 -613 79 -924 -22 -84 -70 -203 -83 -203 -6 0 -15 -4
-20 -9 -5 -5 -3 -6 5 -2 21 13 13 -9 -29 -74 -140 -216 -441 -403 -719 -446
-25 -3 -54 -8 -65 -11 -11 -2 -161 -7 -332 -10 l-313 -6 0 -564 0 -563 -345 2
-345 3 -3 1643 -2 1642 630 -1 c347 -1 668 -5 715 -10z"/>
<path d="M3400 11103 c0 -87 -3 -187 -6 -223 l-6 -65 1756 0 1757 0 2 223 2
222 -1752 0 -1753 0 0 -157z"/>
<path d="M3400 10209 c0 -96 -3 -204 -7 -241 l-6 -68 737 0 736 0 0 235 0 235
-692 0 c-381 0 -710 3 -730 6 l-38 7 0 -174z"/>
<path d="M6006 10373 l-738 -3 6 -33 c3 -17 9 -124 12 -237 l7 -205 799 0 800
0 -6 35 c-3 19 -6 128 -6 243 l0 207 -67 -2 c-38 -2 -400 -4 -807 -5z"/>
<path d="M3400 9259 c0 -97 -3 -196 -6 -221 l-6 -45 1758 -5 c968 -4 1761 -4
1763 -2 2 2 0 103 -4 226 l-7 223 -1749 0 -1749 0 0 -176z"/>
<path d="M4230 7693 c0 -8 1079 -7 1165 0 22 2 -231 4 -562 5 -332 1 -603 -1
-603 -5z"/>
<path d="M5478 7683 c17 -2 47 -2 65 0 17 2 3 4 -33 4 -36 0 -50 -2 -32 -4z"/>
<path d="M5593 7673 c9 -2 23 -2 30 0 6 3 -1 5 -18 5 -16 0 -22 -2 -12 -5z"/>
<path d="M4232 6058 c-2 -1535 -1 -1618 16 -1618 12 0 13 3 5 8 -10 6 -13 345
-16 1618 l-2 1609 -3 -1617z"/>
<path d="M5688 7663 c23 -4 23 -5 5 -19 -17 -14 -17 -14 1 -7 16 5 18 3 13
-13 -7 -18 -6 -18 7 -1 13 17 32 24 22 8 -3 -5 1 -11 8 -14 10 -4 14 0 11 13
-3 16 0 18 21 9 14 -5 31 -9 37 -8 24 1 -63 28 -105 32 -24 2 -32 2 -20 0z"/>
<path d="M5995 7560 c3 -4 14 -10 25 -13 11 -3 18 -2 15 3 -3 4 -14 10 -25 13
-11 3 -18 2 -15 -3z"/>
<path d="M6070 7527 c0 -3 12 -12 26 -22 15 -9 23 -12 20 -6 -7 11 -46 35 -46
28z"/>
<path d="M6290 7336 c0 -2 8 -10 18 -17 15 -13 16 -12 3 4 -13 16 -21 21 -21
13z"/>
<path d="M6320 7296 c0 -2 8 -10 18 -17 15 -13 16 -12 3 4 -13 16 -21 21 -21
13z"/>
<path d="M6387 7190 c3 -11 9 -22 13 -25 5 -3 6 4 3 15 -3 11 -9 22 -13 25 -5
3 -6 -4 -3 -15z"/>
<path d="M5003 7163 c54 -2 139 -2 190 0 51 1 7 3 -98 3 -104 0 -146 -2 -92
-3z"/>
<path d="M5390 7160 c8 -5 22 -9 30 -9 10 0 8 3 -5 9 -27 12 -43 12 -25 0z"/>
<path d="M5447 7149 c7 -7 15 -10 18 -7 3 3 -2 9 -12 12 -14 6 -15 5 -6 -5z"/>
<path d="M4910 6630 l0 -520 193 -2 c280 -4 356 4 445 48 191 93 269 248 260
512 -5 140 -23 205 -78 281 -34 46 -38 60 -12 40 15 -13 16 -12 4 3 -8 10 -20
14 -29 11 -13 -5 -15 -2 -10 11 4 9 3 15 -2 12 -5 -3 -35 12 -67 33 -33 21
-81 47 -109 56 -60 21 -222 33 -437 34 l-158 1 0 -520z"/>
<path d="M5520 7126 c0 -2 7 -7 16 -10 8 -3 12 -2 9 4 -6 10 -25 14 -25 6z"/>
<path d="M4888 6808 c1 -172 4 -320 6 -328 2 -8 4 132 5 313 0 180 -2 327 -6
327 -5 0 -7 -141 -5 -312z"/>
<path d="M5575 7110 c-3 -6 1 -7 9 -4 18 7 21 14 7 14 -6 0 -13 -4 -16 -10z"/>
<path d="M6416 7105 c-9 -26 -7 -32 5 -12 6 10 9 21 6 23 -2 3 -7 -2 -11 -11z"/>
<path d="M6431 7074 c0 -11 3 -14 6 -6 3 7 2 16 -1 19 -3 4 -6 -2 -5 -13z"/>
<path d="M6446 7003 c-6 -14 -5 -15 5 -6 7 7 10 15 7 18 -3 3 -9 -2 -12 -12z"/>
<path d="M6401 6994 c0 -11 3 -14 6 -6 3 7 2 16 -1 19 -3 4 -6 -2 -5 -13z"/>
<path d="M6467 6925 c3 -27 10 -61 14 -75 5 -16 6 -6 2 25 -3 27 -10 61 -14
75 -5 16 -6 6 -2 -25z"/>
<path d="M5766 6917 c3 -10 9 -15 12 -12 3 3 0 11 -7 18 -10 9 -11 8 -5 -6z"/>
<path d="M5811 6794 c0 -11 3 -14 6 -6 3 7 2 16 -1 19 -3 4 -6 -2 -5 -13z"/>
<path d="M6485 6662 c0 -54 -3 -133 -7 -177 -5 -57 -4 -67 2 -35 14 70 24 296
14 303 -5 3 -9 -37 -9 -91z"/>
<path d="M5822 6730 c0 -14 2 -19 5 -12 2 6 2 18 0 25 -3 6 -5 1 -5 -13z"/>
<path d="M5833 6635 c0 -38 2 -53 4 -32 2 20 2 52 0 70 -2 17 -4 1 -4 -38z"/>
<path d="M5822 6530 c0 -14 2 -19 5 -12 2 6 2 18 0 25 -3 6 -5 1 -5 -13z"/>
<path d="M4888 6284 c-2 -91 0 -171 4 -178 4 -6 8 69 8 167 0 97 -2 177 -5
177 -2 0 -5 -75 -7 -166z"/>
<path d="M5800 6435 c0 -8 2 -15 4 -15 2 0 6 7 10 15 3 8 1 15 -4 15 -6 0 -10
-7 -10 -15z"/>
<path d="M5785 6393 c-3 -9 -1 -21 5 -27 8 -8 9 -6 5 6 -4 11 -1 17 12 20 16
3 16 4 1 10 -10 4 -19 1 -23 -9z"/>
<path d="M6461 6384 c0 -11 3 -14 6 -6 3 7 2 16 -1 19 -3 4 -6 -2 -5 -13z"/>
<path d="M6446 6324 c-4 -14 -5 -28 -3 -31 3 -2 8 8 11 23 4 14 5 28 3 31 -3
2 -8 -8 -11 -23z"/>
<path d="M5719 6273 c-23 -28 -36 -52 -18 -31 9 9 20 14 24 10 3 -4 5 0 3 8
-2 8 3 14 10 12 8 -1 11 2 7 8 -8 13 -9 13 -26 -7z"/>
<path d="M6432 6260 c0 -14 2 -19 5 -12 2 6 2 18 0 25 -3 6 -5 1 -5 -13z"/>
<path d="M6415 6219 c-4 -6 -5 -12 -2 -15 2 -3 7 2 10 11 7 17 1 20 -8 4z"/>
<path d="M5627 6184 c-22 -14 -36 -28 -34 -31 3 -3 12 0 19 6 7 6 24 20 38 31
35 27 23 24 -23 -6z"/>
<path d="M6396 6173 c-6 -14 -5 -15 5 -6 7 7 10 15 7 18 -3 3 -9 -2 -12 -12z"/>
<path d="M6385 6139 c-4 -6 -5 -12 -2 -15 2 -3 7 2 10 11 7 17 1 20 -8 4z"/>
<path d="M5475 6110 c-17 -8 -16 -8 8 -7 15 1 27 5 27 9 0 10 -9 9 -35 -2z"/>
<path d="M5320 6096 c0 -2 7 -7 16 -10 8 -3 12 -2 9 4 -6 10 -25 14 -25 6z"/>
<path d="M4908 6083 c7 -3 16 -2 19 1 4 3 -2 6 -13 5 -11 0 -14 -3 -6 -6z"/>
<path d="M4953 6083 c9 -2 23 -2 30 0 6 3 -1 5 -18 5 -16 0 -22 -2 -12 -5z"/>
<path d="M5013 6083 c9 -2 23 -2 30 0 6 3 -1 5 -18 5 -16 0 -22 -2 -12 -5z"/>
<path d="M5143 6083 c15 -2 39 -2 55 0 15 2 2 4 -28 4 -30 0 -43 -2 -27 -4z"/>
<path d="M5238 6083 c7 -3 16 -2 19 1 4 3 -2 6 -13 5 -11 0 -14 -3 -6 -6z"/>
<path d="M5278 6083 c7 -3 16 -2 19 1 4 3 -2 6 -13 5 -11 0 -14 -3 -6 -6z"/>
<path d="M6239 5923 c-13 -16 -12 -17 4 -4 9 7 17 15 17 17 0 8 -8 3 -21 -13z"/>
<path d="M5904 5684 c-18 -14 -18 -15 4 -4 12 6 22 13 22 15 0 8 -5 6 -26 -11z"/>
<path d="M5844 5668 c-4 -5 -3 -12 0 -15 3 -4 6 -1 6 6 0 7 4 10 9 6 5 -3 12
-2 15 3 3 5 -2 9 -10 9 -8 0 -17 -4 -20 -9z"/>
<path d="M5794 5659 c-4 -7 -3 -9 4 -5 5 3 13 0 15 -6 4 -9 6 -10 6 -1 1 17
-16 25 -25 12z"/>
<path d="M5553 5583 c9 -2 23 -2 30 0 6 3 -1 5 -18 5 -16 0 -22 -2 -12 -5z"/>
<path d="M5403 5573 c15 -2 39 -2 55 0 15 2 2 4 -28 4 -30 0 -43 -2 -27 -4z"/>
<path d="M4968 5563 c34 -2 90 -2 125 0 34 2 6 3 -63 3 -69 0 -97 -1 -62 -3z"/>
<path d="M5188 5563 c18 -2 45 -2 60 0 15 2 0 4 -33 4 -33 0 -45 -2 -27 -4z"/>
<path d="M5318 5563 c6 -2 18 -2 25 0 6 3 1 5 -13 5 -14 0 -19 -2 -12 -5z"/>
<path d="M4894 5410 c0 -74 1 -105 3 -67 2 37 2 97 0 135 -2 37 -3 6 -3 -68z"/>
<path d="M4894 5175 c0 -49 1 -71 3 -48 2 23 2 64 0 90 -2 26 -3 8 -3 -42z"/>
<path d="M4894 4815 c0 -148 2 -211 3 -138 2 72 2 194 0 270 -1 76 -3 17 -3
-132z"/>
<path d="M4892 4510 c0 -19 2 -27 5 -17 2 9 2 25 0 35 -3 9 -5 1 -5 -18z"/>
<path d="M4298 4443 c7 -3 16 -2 19 1 4 3 -2 6 -13 5 -11 0 -14 -3 -6 -6z"/>
<path d="M4338 4443 c7 -3 16 -2 19 1 4 3 -2 6 -13 5 -11 0 -14 -3 -6 -6z"/>
<path d="M4408 4443 c7 -3 16 -2 19 1 4 3 -2 6 -13 5 -11 0 -14 -3 -6 -6z"/>
<path d="M4668 4443 c7 -3 16 -2 19 1 4 3 -2 6 -13 5 -11 0 -14 -3 -6 -6z"/>
</g>
</svg>
